# File created by Blade
# Date/Time:  Thu Jan 22 16:10:14 2015
# Frame Rate: 120.000 fps
#------------------------------------------------------
:FULLY-SPECIFIED
:DEGREES
1756
root 12.854261 26.191171 -1.842200 34.985321 12.079084 1.366305
RightUpLeg -22.742040 -40.607153 -33.464945
RightLeg -5.937354 -0.000000 0.000000
RightFoot 5.515798 -30.544914 44.748809
RightToeBase 15.001607 -0.000000 -0.000000
LeftUpLeg -90.962607 11.654537 -12.886451
LeftLeg 93.960398 -0.000000 -0.000000
LeftFoot -43.130635 10.975420 -22.335038
LeftToeBase 2.964741 -0.000000 -0.000000
Spine 38.176352 -9.706446 -21.288021
RightShoulder 2.203469 -15.508677 -17.200455
RightArm 28.114010 -21.946296 64.925840
RightForeArm 4.934802 -0.000000 62.910161
RightHand 9.735830 -0.000000 -20.964657
RightHandThumb1 -24.326973 -0.000000 -32.862282
LeftShoulder -9.748233 25.035981 15.588623
LeftArm 54.060792 -37.535914 -69.420555
LeftForeArm 15.467518 -0.000000 12.340859
LeftHand -19.395191 -0.000000 24.982924
LeftHandThumb1 -26.253704 0.000000 33.147579
Head -33.438905 -0.117013 7.217929
1757
root 12.852289 26.163635 -1.873720 35.324064 12.207778 1.116490
RightUpLeg -23.217999 -40.799852 -32.932287
RightLeg -5.887849 -0.000000 0.000000
RightFoot 5.453793 -30.430125 44.921819
RightToeBase 15.096747 -0.000000 -0.000000
LeftUpLeg -91.539824 11.602863 -12.763807
LeftLeg 94.103738 -0.000000 -0.000000
LeftFoot -43.150511 10.996977 -22.304151
LeftToeBase 2.969581 -0.000000 -0.000000
Spine 38.398188 -9.880628 -21.750643
RightShoulder 2.346907 -15.453667 -17.281484
RightArm 27.945758 -22.017239 64.852871
RightForeArm 5.086746 0.000000 62.999085
RightHand 9.681960 -0.000000 -20.975997
RightHandThumb1 -24.326973 -0.000000 -32.862282
LeftShoulder -9.491610 24.979440 15.544314
LeftArm 53.785548 -37.394865 -68.914057
LeftForeArm 15.743835 -0.000000 12.366093
LeftHand -19.403319 -0.000000 25.883148
LeftHandThumb1 -26.253704 0.000000 33.147579
Head -33.623471 -0.028661 7.317435
1758
root 12.853245 26.135753 -1.902865 35.652958 12.332756 0.883724
RightUpLeg -23.708585 -41.073455 -32.374196
RightLeg -5.845645 -0.000000 0.000000
RightFoot 5.473531 -30.288163 45.046161
RightToeBase 15.050858 -0.000000 -0.000000
LeftUpLeg -92.102726 11.557497 -12.659649
LeftLeg 94.257401 -0.000000 -0.000000
LeftFoot -43.166119 10.970050 -22.303513
LeftToeBase 2.984496 -0.000000 -0.000000
Spine 38.607928 -9.969164 -22.200067
RightShoulder 2.407567 -15.503145 -17.294289
RightArm 27.834998 -22.011657 64.746668
RightForeArm 5.341634 -0.000000 63.038485
RightHand 9.794341 0.000000 -20.876437
RightHandThumb1 -24.326973 -0.000000 -32.862282
LeftShoulder -9.178745 25.010959 15.585678
LeftArm 53.678191 -37.280959 -68.621742
LeftForeArm 16.083504 -0.000000 12.489570
LeftHand -19.443268 -0.000000 26.589338
LeftHandThumb1 -26.253704 0.000000 33.147579
Head -33.771136 -0.004449 7.503294
1759
root 12.855451 26.110130 -1.926193 35.927528 12.481078 0.679966
RightUpLeg -24.112327 -41.363297 -31.854952
RightLeg -5.827091 -0.000000 0.000000
RightFoot 5.534207 -30.150705 45.097038
RightToeBase 15.230286 -0.000000 -0.000000
LeftUpLeg -92.576199 11.511318 -12.550476
LeftLeg 94.397486 -0.000000 -0.000000
LeftFoot -43.171309 10.870990 -22.300669
LeftToeBase 2.986054 -0.000000 -0.000000
Spine 38.909901 -10.075174 -22.687144
RightShoulder 2.477389 -15.419765 -17.303065
RightArm 27.655796 -22.085328 64.645409
RightForeArm 5.432688 0.000000 63.078891
RightHand 9.805763 0.000000 -20.944258
RightHandThumb1 -24.326973 -0.000000 -32.862282
LeftShoulder -8.893470 24.928640 15.638638
LeftArm 53.478435 -37.147708 -68.272525
LeftForeArm 16.343449 -0.000000 12.631343
LeftHand -19.549716 0.000000 27.256126
LeftHandThumb1 -26.253704 0.000000 33.147579
Head -33.979763 0.035100 7.728516
1760
root 12.854972 26.087051 -1.945544 36.170482 12.639385 0.503140
RightUpLeg -24.468761 -41.672890 -31.353403
RightLeg -5.833015 -0.000000 0.000000
RightFoot 5.648599 -30.048704 45.013044
RightToeBase 15.036793 -0.000000 -0.000000
LeftUpLeg -92.999622 11.479308 -12.454332
LeftLeg 94.525177 -0.000000 -0.000000
LeftFoot -43.148126 10.760959 -22.252081
LeftToeBase 2.941154 -0.000000 -0.000000
Spine 39.256864 -10.150432 -23.226015
RightShoulder 2.488039 -15.540075 -17.258628
RightArm 27.766924 -22.111596 64.389641
RightForeArm 5.651787 -0.000000 63.065350
RightHand 9.804269 -0.000000 -20.928917
RightHandThumb1 -24.326973 -0.000000 -32.862282
LeftShoulder -8.641116 24.884338 15.755624
LeftArm 53.374100 -37.024274 -68.056005
LeftForeArm 16.538830 -0.000000 12.866783
LeftHand -19.573132 -0.000000 27.781392
LeftHandThumb1 -26.253704 0.000000 33.147579
Head -34.192614 0.038879 8.030095
1761
root 12.852786 26.065970 -1.960421 36.396800 12.801647 0.324250
RightUpLeg -24.777503 -41.930432 -30.875126
RightLeg -5.870067 -0.000000 0.000000
RightFoot 5.695656 -29.912007 44.953763
RightToeBase 15.121757 -0.000000 -0.000000
LeftUpLeg -93.398173 11.452053 -12.335464
LeftLeg 94.653205 -0.000000 -0.000000
LeftFoot -43.110087 10.621287 -22.227627
LeftToeBase 2.946728 -0.000000 -0.000000
Spine 39.628185 -10.212654 -23.775837
RightShoulder 2.576820 -15.532996 -17.240402
RightArm 27.648521 -22.106349 64.311386
RightForeArm 5.865597 -0.000000 63.113264
RightHand 9.827546 -0.000000 -20.958406
RightHandThumb1 -24.326973 -0.000000 -32.862282
LeftShoulder -8.408795 24.816758 15.902397
LeftArm 53.212362 -36.848705 -67.818825
LeftForeArm 16.850868 -0.000000 13.168288
LeftHand -19.594750 0.000000 28.424441
LeftHandThumb1 -26.253704 0.000000 33.147579
Head -34.448190 0.047955 8.395484
